<?xml version="1.0" encoding="UTF-8" standalone="no"?>
<svg
   xmlns:dc="http://purl.org/dc/elements/1.1/"
   xmlns:cc="http://creativecommons.org/ns#"
   xmlns:rdf="http://www.w3.org/1999/02/22-rdf-syntax-ns#"
   xmlns:svg="http://www.w3.org/2000/svg"
   xmlns="http://www.w3.org/2000/svg"
   style="fill:none"
   id="svg249"
   version="1.1"
   viewBox="0 0 99.59375 17.53125"
   height="17.53125"
   width="99.59375">
  <metadata
     id="metadata255">
    <rdf:RDF>
      <cc:Work
         rdf:about="">
        <dc:format>image/svg+xml</dc:format>
        <dc:type
           rdf:resource="http://purl.org/dc/dcmitype/StillImage" />
        <dc:title></dc:title>
      </cc:Work>
    </rdf:RDF>
  </metadata>
  <defs
     id="defs253" />
  <g
     id="text259"
     style="font-style:normal;font-variant:normal;font-weight:normal;font-stretch:normal;font-size:40px;line-height:1.25;font-family:roboto;-inkscape-font-specification:roboto;letter-spacing:0px;word-spacing:0px;fill:#e1e1e6;fill-opacity:1;stroke:none"
     aria-label="u.news">
    <path
       id="path1107"
       style="font-style:normal;font-variant:normal;font-weight:bold;font-stretch:normal;font-size:32px;font-family:roboto;-inkscape-font-specification:'roboto Bold';fill:#e1e1e6;fill-opacity:1"
       d="m 10.234375,15.5 q -1.671875,2.03125 -4.625,2.03125 -2.71875,0 -4.15625,-1.5625 Q 0.03125,14.40625 0,11.390625 V 0.3125 h 4.515625 v 10.921875 q 0,2.640625 2.40625,2.640625 2.296875,0 3.15625,-1.59375 V 0.3125 h 4.53125 v 16.90625 h -4.25 z" />
    <path
       id="path1109"
       style="font-style:normal;font-variant:normal;font-weight:bold;font-stretch:normal;font-size:32px;font-family:roboto;-inkscape-font-specification:'roboto Bold';fill:#e1e1e6;fill-opacity:1"
       d="m 18.25,15 q 0,-1.078125 0.71875,-1.75 0.734375,-0.671875 1.828125,-0.671875 1.109375,0 1.828125,0.671875 0.734375,0.671875 0.734375,1.75 0,1.0625 -0.71875,1.734375 -0.71875,0.65625 -1.84375,0.65625 -1.109375,0 -1.828125,-0.65625 Q 18.25,16.0625 18.25,15 Z" />
    <path
       id="path1111"
       style="font-style:normal;font-variant:normal;font-weight:bold;font-stretch:normal;font-size:32px;font-family:roboto;-inkscape-font-specification:'roboto Bold';fill:#e1e1e6;fill-opacity:1"
       d="m 31.46875,0.3125 0.140625,1.953125 Q 33.421875,0 36.46875,0 q 2.6875,0 4,1.578125 1.3125,1.578125 1.34375,4.71875 V 17.21875 H 37.296875 V 6.40625 q 0,-1.4375 -0.625,-2.078125 -0.625,-0.65625 -2.078125,-0.65625 -1.90625,0 -2.859375,1.625 V 17.21875 H 27.21875 V 0.3125 Z" />
    <path
       id="path1113"
       style="font-style:normal;font-variant:normal;font-weight:bold;font-stretch:normal;font-size:32px;font-family:roboto;-inkscape-font-specification:'roboto Bold';fill:#e1e1e6;fill-opacity:1"
       d="m 53.015625,17.53125 q -3.71875,0 -6.0625,-2.28125 Q 44.625,12.96875 44.625,9.171875 v -0.4375 Q 44.625,6.1875 45.609375,4.1875 46.59375,2.171875 48.390625,1.09375 50.203125,0 52.515625,0 q 3.46875,0 5.453125,2.1875 2,2.1875 2,6.203125 v 1.84375 H 49.203125 q 0.21875,1.65625 1.3125,2.65625 1.109375,1 2.796875,1 2.609375,0 4.078125,-1.890625 l 2.21875,2.484375 q -1.015625,1.4375 -2.75,2.25 Q 55.125,17.53125 53.015625,17.53125 Z M 52.5,3.65625 q -1.34375,0 -2.1875,0.90625 -0.828125,0.90625 -1.0625,2.59375 h 6.28125 V 6.796875 Q 55.5,5.296875 54.71875,4.484375 53.9375,3.65625 52.5,3.65625 Z" />
    <path
       id="path1115"
       style="font-style:normal;font-variant:normal;font-weight:bold;font-stretch:normal;font-size:32px;font-family:roboto;-inkscape-font-specification:'roboto Bold';fill:#e1e1e6;fill-opacity:1"
       d="M 77.234375,11.078125 79.453125,0.3125 H 83.8125 L 79.5,17.21875 H 75.71875 L 72.515625,6.578125 69.3125,17.21875 H 65.546875 L 61.234375,0.3125 h 4.359375 l 2.203125,10.75 3.09375,-10.75 h 3.265625 z" />
    <path
       id="path1117"
       style="font-style:normal;font-variant:normal;font-weight:bold;font-stretch:normal;font-size:32px;font-family:roboto;-inkscape-font-specification:'roboto Bold';fill:#e1e1e6;fill-opacity:1"
       d="M 95.203125,12.546875 Q 95.203125,11.71875 94.375,11.25 93.5625,10.765625 91.75,10.390625 85.71875,9.125 85.71875,5.265625 q 0,-2.25 1.859375,-3.75 Q 89.453125,0 92.46875,0 q 3.21875,0 5.140625,1.515625 1.9375,1.515625 1.9375,3.9375 H 95.03125 q 0,-0.96875 -0.625,-1.59375 -0.625,-0.640625 -1.953125,-0.640625 -1.140625,0 -1.765625,0.515625 -0.625,0.515625 -0.625,1.3125 0,0.75 0.703125,1.21875 0.71875,0.453125 2.40625,0.796875 1.6875,0.328125 2.84375,0.75 3.578125,1.3125 3.578125,4.546875 0,2.3125 -1.984375,3.75 -1.984375,1.421875 -5.125,1.421875 -2.125,0 -3.78125,-0.75 Q 87.0625,16.015625 86.125,14.703125 85.1875,13.375 85.1875,11.84375 h 4.28125 q 0.0625,1.203125 0.890625,1.84375 0.828125,0.640625 2.21875,0.640625 1.296875,0 1.953125,-0.484375 0.671875,-0.5 0.671875,-1.296875 z" />
  </g>
</svg>
